# xmcd
#
# Track frame offsets:
#	150
#	14411
#	24281
#	35317
#	46244
#	55510
#	68661
#	81819
#	94435
#
# Disc length: 1408 seconds
#
# Revision: 1
# Processed by: cddbd v1.5.1PL0 Copyright (c) Steve Scherf et al.
# Submitted via: audiograbber 1.83.01
#
DISCID=63057e09
DTITLE=Harlan Howard - Country Music Hall Of Fame
DYEAR=1997
DGENRE=Country
TTITLE0=Sunday Morning Christian
TTITLE1=Uncle Sam
TTITLE2=That Little Boy Who Follows Me
TTITLE3=Better Get Your Pride Back Boy
TTITLE4=Three Cheers For The Good Guys
TTITLE5=She Called Me Baby
TTITLE6=A Little More Time
TTITLE7=The Chokin' Kind
TTITLE8=Mister Professor
EXTD=
EXTT0=
EXTT1=
EXTT2=
EXTT3=
EXTT4=
EXTT5=
EXTT6=
EXTT7=
EXTT8=
PLAYORDER=
